<svg width="1920" height="1080" viewBox="0 0 1920 1080" xmlns="http://www.w3.org/2000/svg">
  <defs>
    <pattern id="nature-pattern" x="0" y="0" width="400" height="400" patternUnits="userSpaceOnUse">
      <!-- Ãrvores -->
      <path d="M50,350 L100,250 L150,350 Z" fill="#2d5a27" opacity="0.7"/>
      <path d="M250,350 L300,200 L350,350 Z" fill="#2d5a27" opacity="0.7"/>
      <path d="M150,350 L200,150 L250,350 Z" fill="#2d5a27" opacity="0.7"/>
      
      <!-- Montanhas ao fundo -->
      <path d="M0,350 L100,200 L200,350 Z" fill="#1e3a1e" opacity="0.5"/>
      <path d="M150,350 L250,150 L350,350 Z" fill="#1e3a1e" opacity="0.5"/>
      
      <!-- Sol -->
      <circle cx="350" cy="50" r="30" fill="#f9d71c" opacity="0.6"/>
      
      <!-- Nuvens -->
      <path d="M50,100 Q70,80 90,100 Q110,80 130,100 Q110,120 90,120 Q70,120 50,100 Z" fill="#ffffff" opacity="0.4"/>
      <path d="M200,150 Q220,130 240,150 Q260,130 280,150 Q260,170 240,170 Q220,170 200,150 Z" fill="#ffffff" opacity="0.4"/>
    </pattern>
  </defs>
  
  <rect width="100%" height="100%" fill="url(#nature-pattern)"/>
</svg> 